<svg xmlns="http://www.w3.org/2000/svg" fill="none" viewBox="0 0 400 400" id="Meta-Logo--Streamline-Ultimate" height="400" width="400">
  <desc>
    Meta Logo Streamline Icon: https://streamlinehq.com
  </desc>
  <path fill="#0081fb" fill-rule="evenodd" d="M32.43333333333334 118.98333333333335C50.66666666666667 92.86666666666667 75.86666666666666 75 100 75c27.566666666666666 0 51.93333333333334 18.000000000000004 72.30000000000001 38.88333333333334 20.916666666666668 21.433333333333337 41.116666666666674 49.61666666666667 59.96666666666667 76.56666666666668l6.316666666666667 9.016666666666667c16.833333333333336 24.166666666666668 32.6 46.733333333333334 47.75000000000001 64.03333333333335 8.466666666666667 9.666666666666666 16.166666666666668 17 23.116666666666667 21.833333333333336 7 4.85 12.05 6.333333333333334 15.550000000000002 6.333333333333334 11.400000000000002 0 21.216666666666665 -4.533333333333334 28.5 -13.416666666666668 7.483333333333334 -9.116666666666667 13.166666666666668 -24 13.166666666666668 -45.65 0 -41.66666666666667 -11.783333333333333 -73.53333333333333 -26.450000000000003 -94.55000000000001C324.9166666666667 116.10000000000001 308.50000000000006 108.33333333333334 300 108.33333333333334c-13.066666666666668 0 -28.900000000000002 8.916666666666668 -47.983333333333334 28.333333333333336a16.666666666666668 16.666666666666668 0 1 1 -23.783333333333335 -23.333333333333332C248.46666666666667 92.71666666666667 272.6666666666667 75 300 75c24.133333333333333 0 49.35 17.86666666666667 67.56666666666668 43.983333333333334C386.4166666666667 146 400 184.61666666666667 400 232.6c0 27.266666666666666 -7.166666666666667 50.26666666666667 -20.71666666666667 66.78333333333333A68.93333333333334 68.93333333333334 0 0 1 325 325c-12.816666666666668 0 -24.46666666666667 -5.283333333333334 -34.550000000000004 -12.283333333333333 -10.133333333333335 -7.016666666666667 -19.883333333333336 -16.616666666666667 -29.200000000000003 -27.250000000000004 -16.45 -18.8 -33.333333333333336 -43.016666666666666 -49.966666666666676 -66.86666666666666l-6.333333333333334 -9.05c-19.05 -27.21666666666667 -37.76666666666667 -53.20000000000001 -56.50000000000001 -72.38333333333334C129.16666666666669 117.41666666666667 113.2 108.33333333333334 100 108.33333333333334c-8.483333333333334 0 -24.91666666666667 7.7666666666666675 -40.23333333333334 29.71666666666667C45.1 159.0666666666667 33.333333333333336 190.91666666666669 33.333333333333336 232.6166666666667c0 21.633333333333336 5.6833333333333345 36.5 13.166666666666668 45.63333333333333a35.61666666666667 35.61666666666667 0 0 0 28.5 13.416666666666668c6.416666666666667 0 16.51666666666667 -4.95 31.03333333333334 -19.866666666666667 13.816666666666666 -14.200000000000001 28.46666666666667 -34 44.25 -56.400000000000006a16.666666666666668 16.666666666666668 0 0 1 27.250000000000004 19.2c-15.700000000000001 22.283333333333335 -31.733333333333334 44.13333333333334 -47.616666666666674 60.45 -15.166666666666668 15.583333333333336 -33.78333333333334 29.95 -54.91666666666667 29.95a68.93333333333334 68.93333333333334 0 0 1 -54.28333333333334 -25.616666666666667C7.166666666666667 282.86666666666673 0 259.8833333333333 0 232.6 0 184.63333333333333 13.583333333333334 146 32.43333333333334 119Z" clip-rule="evenodd" stroke-width="16.6667"></path>
</svg>