<svg role="img" viewBox="0 0 400 400" xmlns="http://www.w3.org/2000/svg" id="Perplexity--Streamline-Simple-Icons" height="400" width="400">
  <desc>
    Perplexity Streamline Icon: https://streamlinehq.com
  </desc>
  <title>Perplexity</title>
  <path d="M373.295 118.16000000000001h-38.510000000000005V1.1266666666666667l-125.15666666666668 105.90333333333334V2.628333333333334h-19.256666666666668v103.27666666666667L74.84 0v118.16000000000001H26.705000000000002v173.29333333333335h48.13666666666667V400l115.53333333333335 -105.985v103.34166666666667h19.256666666666668v-100.78166666666667l115.53 103.01166666666667v-108.13166666666667h48.13666666666667V118.16000000000001zm-57.76166666666667 -75.51666666666667v75.51666666666667h-89.25000000000001l89.25000000000001 -75.51666666666667zm-221.43666666666667 1.1266666666666667 81.15166666666669 74.39H94.09666666666668V43.77zM45.96 272.20000000000005V137.41666666666666h130.79333333333335l-101.915 101.91166666666668v32.87166666666667H45.96zm48.13666666666667 84.00666666666667v-64.75333333333334h0.0016666666666666668v-44.14666666666667l96.27166666666668 -96.27333333333334v116.85166666666667l-96.27333333333334 88.32166666666667zm211.81000000000003 0.41333333333333333 -96.27666666666667 -85.84833333333334V151.03l96.27666666666667 96.27666666666667v109.31333333333333zm48.13666666666667 -84.42h-28.883333333333336v-32.87166666666667L223.24666666666667 137.41666666666666h130.79666666666668v134.78333333333333z" fill="#20808d" stroke-width="16.6667"></path>
</svg>